<svg width="200" height="200" viewBox="0 0 500 500" xmlns="http://www.w3.org/2000/svg">
  <!-- Background Circle/Chat Bubble -->
  <path d="M400 250c0-82.8-67.2-150-150-150S100 167.2 100 250c0 41.4 16.8 78.8 43.9 106.1L120 420l85.4-38.6c14.2 5.5 29.6 8.6 44.6 8.6 82.8 0 150-67.2 150-150z" fill="none" stroke="#001F3F" stroke-width="12"/>
  
  <!-- Saffron Top Arc -->
  <path d="M250 100c82.8 0 150 67.2 150 150" fill="none" stroke="#FF9933" stroke-width="15" stroke-linecap="round"/>
  
  <!-- Green Bottom Arc -->
  <path d="M400 250c0 82.8-67.2 150-150 150" fill="none" stroke="#138808" stroke-width="15" stroke-linecap="round"/>

  <!-- Robot Head -->
  <rect x="180" y="160" width="140" height="100" rx="40" fill="white" stroke="#001F3F" stroke-width="8"/>
  <circle cx="220" cy="210" r="8" fill="#001F3F"/>
  <circle cx="280" cy="210" r="8" fill="#001F3F"/>
  <path d="M230 235q20 10 40 0" fill="none" stroke="#001F3F" stroke-width="4" stroke-linecap="round"/>
  <circle cx="250" cy="145" r="5" fill="#001F3F"/>
  <line x1="250" y1="145" x2="250" y2="160" stroke="#001F3F" stroke-width="4"/>

  <!-- Ballot Box -->
  <path d="M180 320h140v60H180z" fill="#001F3F"/>
  <rect x="220" y="280" width="60" height="40" fill="#FF9933"/>
  <path d="M235 300l10 10 15-15" fill="none" stroke="white" stroke-width="5" stroke-linecap="round" stroke-linejoin="round"/>
  
  <!-- Indian Flag Stripes on Box -->
  <rect x="235" y="340" width="30" height="4" fill="#FF9933"/>
  <rect x="235" y="348" width="30" height="4" fill="white"/>
  <rect x="235" y="356" width="30" height="4" fill="#138808"/>
</svg>
